<svg width="24" height="24" viewBox="0 0 24 24" focusable="false" class="fr-ec-icon fr-ec-icon--default fr-ec-button-icon__icon" role="presentation">
    <path d="M12 11.6C9.60202 11.6 7.65002 9.64902 7.65002 7.25002 7.65002 4.85102 9.60202 2.90002 12 2.90002 14.398 2.90002 16.35 4.85102 16.35 7.25002 16.35 9.64902 14.398 11.6 12 11.6zM12 4.10002C10.263 4.10002 8.85002 5.51302 8.85002 7.25002 8.85002 8.98702 10.263 10.4 12 10.4 13.737 10.4 15.15 8.98702 15.15 7.25002 15.15 5.51302 13.737 4.10002 12 4.10002zM19.611 21.111H4.38898V20.5C4.38898 16.736 5.29298 12.889 12 12.889 18.707 12.889 19.611 16.737 19.611 20.5V21.111zM5.61998 19.888H18.379C18.264 16.304 17.039 14.111 12 14.111 6.96098 14.111 5.73498 16.304 5.61998 19.888z"></path>
</svg>