<svg width="32" height="32" viewBox="0 0 32 32" focusable="false" class="fr-ec-icon fr-ec-icon--default" role="presentation">
    <path d="M27.8276 28.5752L21.7378 22.4863C19.979 23.9619 17.7129 24.8516 15.2427 24.8516C9.66309 24.8516 5.12402 20.3125 5.12402 14.7334C5.12402 9.1543 9.66309 4.61523 15.2427 4.61523C20.8223 4.61523 25.3613 9.1543 25.3613 14.7334C25.3613 17.124 24.5283 19.3232 23.1367 21.0566L29.2417 27.1611L27.8276 28.5752ZM15.2427 6.61523C10.7661 6.61523 7.12402 10.2568 7.12402 14.7334C7.12402 19.21 10.7661 22.8516 15.2427 22.8516C19.7192 22.8516 23.3613 19.21 23.3613 14.7334C23.3613 10.2568 19.7192 6.61523 15.2427 6.61523Z"></path>
</svg>