<svg width="24" height="24" viewBox="0 0 24 24" focusable="false" class="fr-ec-icon fr-ec-icon--default fr-ec-button-icon__icon" role="presentation">
    <path fill-rule="evenodd" clip-rule="evenodd" d="M14.6844 3.40002L16.9734 7.16302H20.6004V20.6H3.40039V7.16302H7.02739L9.31639 3.40002H14.6844ZM4.60039 19.4H19.4004L19.4014 8.36202H16.2994L14.0104 4.59902H9.99139L7.70239 8.36202H4.60039V19.4ZM11.763 9.01099C13.862 9.01099 15.57 10.719 15.57 12.818L15.569 12.819C15.569 13.67 15.288 14.457 14.814 15.091L16.985 17.263L16.207 18.04L14.037 15.869C13.402 16.343 12.615 16.624 11.763 16.624C9.66503 16.624 7.95703 14.917 7.95703 12.818C7.95703 10.719 9.66403 9.01099 11.763 9.01099ZM9.05603 12.818C9.05603 14.31 10.271 15.524 11.763 15.524C13.256 15.524 14.47 14.31 14.47 12.818C14.47 11.326 13.256 10.111 11.763 10.111C10.27 10.111 9.05603 11.326 9.05603 12.818Z"></path>
</svg>