<svg width="24" height="24" viewBox="0 0 24 24" focusable="false" class="fr-ec-icon fr-ec-icon--default fr-ec-button-icon__icon" role="presentation">
    <path fill-rule="evenodd" clip-rule="evenodd" d="M7.04381 6.56598L7.03981 3.50598H2.00781V4.70498H5.84181L5.85581 15.459H18.7528L20.9928 6.56498L7.04381 6.56598ZM17.8178 14.26H7.05481L7.04681 7.76498H19.4538L17.8188 14.26H17.8178ZM16.9688 20.502C17.7972 20.502 18.4688 19.8304 18.4688 19.002C18.4688 18.1736 17.7972 17.502 16.9688 17.502C16.1403 17.502 15.4688 18.1736 15.4688 19.002C15.4688 19.8304 16.1403 20.502 16.9688 20.502ZM8.95312 19.002C8.95312 19.8304 8.28155 20.502 7.45312 20.502C6.6247 20.502 5.95312 19.8304 5.95312 19.002C5.95312 18.1736 6.6247 17.502 7.45312 17.502C8.28155 17.502 8.95312 18.1736 8.95312 19.002Z"></path>
</svg>