<svg width="24" height="24" viewBox="0 0 24 24" focusable="false" class="fr-ec-icon fr-ec-icon--default fr-ec-button-icon__icon" role="presentation">
    <path fill-rule="evenodd" clip-rule="evenodd" d="M12.0004 3.40002C7.25839 3.40002 3.40039 7.25802 3.40039 12C3.40039 16.742 7.25839 20.6 12.0004 20.6C16.7424 20.6 20.6004 16.743 20.6004 12C20.6004 7.25702 16.7424 3.40002 12.0004 3.40002ZM12.0004 19.4C7.91939 19.4 4.60039 16.08 4.60039 12C4.60039 7.92002 7.91939 4.60002 12.0004 4.60002C16.0814 4.60002 19.4004 7.92002 19.4004 12C19.4004 16.08 16.0814 19.4 12.0004 19.4ZM12.7992 10.5H11.1992V16.5H12.7992V10.5ZM11.1992 7.5H12.7992V9.1H11.1992V7.5Z"></path>
</svg>