<svg width="24" height="24" viewBox="0 0 24 24" focusable="false" class="fr-ec-icon fr-ec-icon--default fr-ec-icon-typography__icon--start fr-ec-icon-typography__icon--positive" role="presentation" style="width: 24px; height: 24px;">
    <path fill="#008a24" clip-rule="evenodd" d="M3.40625 12C3.40625 16.743 7.26425 20.6 12.0063 20.6C16.7483 20.6 20.6063 16.743 20.6063 12C20.6063 7.25702 16.7483 3.40002 12.0063 3.40002C7.26425 3.40002 3.40625 7.25702 3.40625 12ZM4.60625 12C4.60625 7.92002 7.92525 4.60002 12.0063 4.60002C16.0872 4.60002 19.4062 7.92002 19.4062 12C19.4062 16.08 16.0872 19.4 12.0063 19.4C7.92525 19.4 4.60625 16.08 4.60625 12ZM7.10156 12.186L10.7426 15.813L16.8896 9.67103L15.9006 8.68103L10.7416 13.835L8.08956 11.193L7.10156 12.186Z"></path>
</svg>