<svg width="24" height="24" viewBox="0 0 24 24" focusable="false" class="fr-ec-icon fr-ec-icon--default fr-ec-button-icon__icon" role="presentation">
    <path d="M12 20.47L4.689 12.97C3.657 11.938 3.086 10.594 3.086 9.19205C3.086 6.08805 5.439 3.74805 8.56 3.74805C10.018 3.74805 11.235 4.53205 12 5.19205C12.766 4.53205 13.983 3.74805 15.441 3.74805C18.561 3.74805 20.914 6.08905 20.914 9.19205C20.914 10.594 20.343 11.938 19.306 12.975L12 20.47ZM8.56 4.94705C6.123 4.94705 4.287 6.77205 4.287 9.19205C4.287 10.274 4.733 11.316 5.544 12.128L12.001 18.752L18.453 12.133C19.269 11.318 19.715 10.275 19.715 9.19305C19.715 6.77305 17.878 4.94805 15.442 4.94805C14.108 4.94805 12.98 5.88005 12.426 6.43505L12.001 6.86105L11.576 6.43505C11.022 5.87905 9.895 4.94705 8.56 4.94705Z"></path>
</svg>