<svg width="24" height="24" viewBox="0 0 24 24" focusable="false" class="fr-ec-icon fr-ec-icon--default fr-ec-button-icon__icon" role="presentation">
    <path fill-rule="evenodd" clip-rule="evenodd" d="M17.9201 17.0801L17.0201 16.1801L15.6301 14.7901L14.7801 13.9401L10.0501 9.21008L9.21008 8.37008L8.15008 7.30008L7.21008 6.36008L4.42008 3.58008L3.58008 4.42008L6.08008 6.92008C4.12008 8.02008 2.50008 9.66008 1.46008 11.7201L1.33008 12.0001L1.46008 12.2701C3.42008 16.1701 7.45008 18.6001 12.0001 18.6001C13.6901 18.6001 15.3101 18.2501 16.7801 17.6201L19.5801 20.4201L20.4301 19.5701L17.9201 17.0801ZM9.23008 10.0801L13.9201 14.7701C13.3701 15.1501 12.7201 15.4001 12.0001 15.4001C10.1201 15.4001 8.60008 13.8801 8.60008 12.0001C8.60008 11.2801 8.84008 10.6301 9.23008 10.0801ZM12.0001 17.4001C8.02008 17.4001 4.47008 15.3401 2.68008 12.0001C3.66008 10.1801 5.17008 8.76008 6.98008 7.83008L8.37008 9.22008C7.77008 9.99008 7.40008 10.9501 7.40008 12.0001C7.40008 14.5401 9.46008 16.6001 12.0001 16.6001C13.0501 16.6001 14.0101 16.2301 14.7901 15.6301L15.8601 16.7001C14.6501 17.1501 13.3501 17.4001 12.0001 17.4001ZM22.54 11.7301C20.58 7.83008 16.55 5.40009 12 5.40009C10.77 5.40009 9.57996 5.58009 8.45996 5.92009L9.44996 6.91009C10.27 6.72009 11.12 6.60009 12 6.60009C15.98 6.60009 19.53 8.66009 21.32 12.0001C20.54 13.4501 19.42 14.6401 18.08 15.5401L18.96 16.4201C20.45 15.3601 21.69 13.9501 22.53 12.2701L22.67 12.0001L22.54 11.7301ZM16.6003 12.0001C16.6003 12.6101 16.4703 13.1901 16.2603 13.7201L15.3103 12.7601C15.3603 12.5201 15.4003 12.2601 15.4003 12.0001C15.4003 10.1201 13.8803 8.60009 12.0003 8.60009C11.7403 8.60009 11.4803 8.64008 11.2303 8.69008L10.2803 7.74009C10.8203 7.52009 11.3903 7.40009 12.0003 7.40009C14.5403 7.40009 16.6003 9.46009 16.6003 12.0001Z"></path>
</svg>