<svg width="24" height="24" viewBox="0 0 24 24" focusable="false" class="fr-ec-icon fr-ec-icon--default fr-ec-icon-typography__icon--start fr-ec-icon-typography__icon--attention" role="presentation" style="width: 24px; height: 24px;">
    <path fill="#e00" d="M11.9999 2.8999C6.9799 2.8999 2.8999 6.9799 2.8999 11.9999C2.8999 17.0199 6.9799 21.0999 11.9999 21.0999C17.0199 21.0999 21.0999 17.0199 21.0999 11.9999C21.0999 6.9799 17.0199 2.8999 11.9999 2.8999ZM11.9999 19.8999C7.6399 19.8999 4.0999 16.3599 4.0999 11.9999C4.0999 7.6399 7.6399 4.0999 11.9999 4.0999C16.3599 4.0999 19.8999 7.6399 19.8999 11.9999C19.8999 16.3599 16.3599 19.8999 11.9999 19.8999ZM15.1099 8.0399L11.9999 11.1499L8.8899 8.0399L8.0399 8.8899L11.1499 11.9999L8.0399 15.1099L8.8899 15.9599L11.9999 12.8499L15.1099 15.9599L15.9599 15.1099L12.8499 11.9999L15.9599 8.8899L15.1099 8.0399Z"></path>
</svg>