<svg width="24" height="24" viewBox="0 0 24 24" focusable="false" class="fr-ec-icon fr-ec-icon--default fr-ec-button-icon__icon" role="presentation">
    <path fill-rule="evenodd" clip-rule="evenodd" d="M1.46008 12.2699C3.42008 16.1699 7.45008 18.5999 12.0001 18.5999C16.5501 18.5999 20.5801 16.1699 22.5401 12.2699L22.6701 11.9999L22.5401 11.7299C20.5801 7.8299 16.5501 5.3999 12.0001 5.3999C7.45008 5.3999 3.42008 7.8299 1.46008 11.7299L1.33008 11.9999L1.46008 12.2699ZM12.0001 17.3999C8.02008 17.3999 4.48008 15.3399 2.68008 11.9999C4.47008 8.6599 8.02008 6.5999 12.0001 6.5999C15.9801 6.5999 19.5201 8.6599 21.3201 11.9999C19.5301 15.3399 15.9801 17.3999 12.0001 17.3999ZM7.40039 11.9999C7.40039 14.5399 9.46039 16.5999 12.0004 16.5999C14.5404 16.5999 16.6004 14.5399 16.6004 11.9999C16.6004 9.4599 14.5404 7.3999 12.0004 7.3999C9.46039 7.3999 7.40039 9.4599 7.40039 11.9999ZM8.60039 11.9999C8.60039 10.1199 10.1204 8.5999 12.0004 8.5999C13.8804 8.5999 15.4004 10.1199 15.4004 11.9999C15.4004 13.8799 13.8804 15.3999 12.0004 15.3999C10.1204 15.3999 8.60039 13.8799 8.60039 11.9999Z"></path>
</svg>